<svg width="220" height="119" viewBox="0 0 220 119" fill="none" xmlns="http://www.w3.org/2000/svg">
<path d="M14.1563 85.1244V100.954H10.3014L3.85492 91.1914V100.954H0V85.1244H3.85492L10.3014 94.9315V85.1244H14.1563Z" fill="white"/>
<path d="M26.815 98.1568H20.9077L19.959 100.953H15.9243L21.6518 85.1239H26.1159L31.8433 100.953H27.7637L26.815 98.1568ZM23.8589 89.3833L21.9214 95.1757H25.8213L23.8589 89.3833Z" fill="white"/>
<path d="M32.7271 85.1239H44.9709V88.2149H40.7764V100.953H36.9215V88.2149H32.7271V85.1239Z" fill="white"/>
<path d="M46.8428 85.1239H50.6977V94.5964C50.6977 96.469 51.6215 97.5476 53.4491 97.5476C55.2767 97.5476 56.2454 96.464 56.2454 94.5964V85.1239H60.1003V94.5715C60.1003 98.9457 57.0343 101.108 53.3842 101.108C49.709 101.108 46.8478 98.9457 46.8478 94.5715V85.1239H46.8428Z" fill="white"/>
<path d="M69.2839 85.1239C73.1637 85.1239 75.1012 87.356 75.1012 90.1074C75.1012 92.0898 74.0176 93.9623 71.5858 94.6863L75.236 100.953H70.8867L67.5961 94.9759H66.6723V100.953H62.8174V85.1239H69.2839ZM69.0592 88.3247H66.6723V92.2495H69.0592C70.5023 92.2495 71.1764 91.5055 71.1764 90.2672C71.1814 89.0937 70.5023 88.3247 69.0592 88.3247Z" fill="white"/>
<path d="M87.375 98.1568H81.4678L80.5191 100.953H76.4844L82.2118 85.1239H86.6759L92.4034 100.953H88.3238L87.375 98.1568ZM84.4189 89.3833L82.4815 95.1757H86.3813L84.4189 89.3833Z" fill="white"/>
<path d="M98.0009 85.1239V97.977H103.049V100.953H94.146V85.1239H98.0009Z" fill="white"/>
<path d="M124.451 90.1273H120.191C119.602 89.0687 118.524 88.5045 117.081 88.5045C114.604 88.5045 112.956 90.2622 112.956 93.0135C112.956 95.9447 114.624 97.6574 117.395 97.6574C119.313 97.6574 120.641 96.6437 121.23 94.8611H116.337V92.0198H124.725V95.6051C123.912 98.3315 121.275 101.063 117.105 101.063C112.372 101.063 109.036 97.7473 109.036 93.0135C109.036 88.2798 112.352 84.9392 117.086 84.9392C120.866 84.9442 123.617 86.8816 124.451 90.1273Z" fill="white"/>
<path d="M133.344 85.1239C137.224 85.1239 139.161 87.356 139.161 90.1074C139.161 92.0898 138.078 93.9623 135.646 94.6863L139.296 100.953H134.947L131.651 94.9759H130.727V100.953H126.873V85.1239H133.344ZM133.114 88.3247H130.727V92.2495H133.114C134.557 92.2495 135.232 91.5055 135.232 90.2672C135.237 89.0937 134.557 88.3247 133.114 88.3247Z" fill="white"/>
<path d="M141.578 85.1239H145.433V100.953H141.578V85.1239Z" fill="white"/>
<path d="M162.391 85.1239V100.953H158.536L152.089 91.1909V100.953H148.234V85.1239H152.089L158.536 94.931V85.1239H162.391Z" fill="white"/>
<path d="M179.418 93.0385C179.418 97.7273 176.172 100.953 171.119 100.953H165.192V85.1239H171.119C176.172 85.1239 179.418 88.3247 179.418 93.0385ZM170.874 97.6175C173.781 97.6175 175.493 95.9497 175.493 93.0385C175.493 90.1323 173.781 88.4146 170.874 88.4146H169.047V97.6125H170.874V97.6175Z" fill="white"/>
<path d="M191.283 88.2149H185.446V91.4156H190.609V94.3917H185.446V97.8621H191.283V100.953H181.586V85.1239H191.283V88.2149Z" fill="white"/>
<path d="M200.261 85.1239C204.141 85.1239 206.078 87.356 206.078 90.1074C206.078 92.0898 204.995 93.9623 202.563 94.6863L206.213 100.953H201.864L198.573 94.9759H197.649V100.953H193.794V85.1239H200.261ZM200.036 88.3247H197.649V92.2495H200.036C201.479 92.2495 202.153 91.5055 202.153 90.2672C202.158 89.0937 201.479 88.3247 200.036 88.3247Z" fill="white"/>
<path d="M214.223 101.108C210.817 101.108 208.156 99.4151 208.046 96.2143H212.151C212.26 97.4327 213.029 98.0169 214.113 98.0169C215.241 98.0169 215.965 97.4527 215.965 96.5289C215.965 93.5977 208.051 95.1757 208.096 89.5631C208.096 86.562 210.553 84.8942 213.868 84.8942C217.319 84.8942 219.641 86.607 219.795 89.628H215.626C215.556 88.6143 214.837 88.0051 213.798 87.9802C212.875 87.9602 212.175 88.4296 212.175 89.4233C212.175 92.1746 220 90.9313 220 96.2343C219.995 98.9008 217.923 101.108 214.223 101.108Z" fill="white"/>
<path d="M73.3335 110.251H78.9111V111.924H75.4208V113.731H78.0323V115.354H75.4208V118.82H73.3335V110.251Z" fill="white"/>
<path d="M84.394 110.251H86.4813V118.82H84.394V110.251Z" fill="white"/>
<path d="M91.9243 110.251H98.5556V111.924H96.2836V118.82H94.1963V111.924H91.9243V110.251Z" fill="white"/>
<path d="M111.653 110.251V118.82H109.566L106.076 113.531V118.82H103.988V110.251H106.076L109.566 115.564V110.251H111.653Z" fill="white"/>
<path d="M122.803 111.924H119.642V113.656H122.439V115.269H119.642V117.147H122.803V118.82H117.555V110.251H122.803V111.924Z" fill="white"/>
<path d="M131.646 118.909C129.804 118.909 128.361 117.996 128.301 116.263H130.523C130.583 116.922 130.997 117.242 131.586 117.242C132.196 117.242 132.585 116.937 132.585 116.438C132.585 114.85 128.301 115.704 128.326 112.668C128.326 111.045 129.654 110.141 131.452 110.141C133.319 110.141 134.578 111.07 134.662 112.703H132.405C132.37 112.153 131.976 111.824 131.417 111.814C130.917 111.799 130.538 112.058 130.538 112.593C130.538 114.081 134.772 113.412 134.772 116.278C134.772 117.711 133.649 118.909 131.646 118.909Z" fill="white"/>
<path d="M143.541 118.909C141.698 118.909 140.255 117.996 140.195 116.263H142.417C142.477 116.922 142.892 117.242 143.481 117.242C144.09 117.242 144.48 116.937 144.48 116.438C144.48 114.85 140.195 115.704 140.22 112.668C140.22 111.045 141.549 110.141 143.346 110.141C145.214 110.141 146.472 111.07 146.557 112.703H144.3C144.265 112.153 143.87 111.824 143.311 111.814C142.812 111.799 142.432 112.058 142.432 112.593C142.432 114.081 146.667 113.412 146.667 116.278C146.662 117.711 145.543 118.909 143.541 118.909Z" fill="white"/>
<path d="M78.9507 0V22.8499L90.3756 11.4249L78.9507 0Z" fill="white"/>
<path d="M141.179 0.0299683L129.754 11.4549L141.179 22.8798V0.0299683Z" fill="white"/>
<path d="M126.997 14.1963L111.772 29.4212L110.005 46.3888L108.222 29.2814L92.9972 14.0565L73.3281 33.7255L95.449 52.351L97.3365 68.6545L107.338 73.8626L103.463 68.7593L104.946 67.2763H109.97H109.995H110.02H115.043L116.526 68.7593L112.477 74.0873L122.653 68.7893L124.541 52.4858L146.661 33.8603L126.997 14.1963ZM100.203 39.6627L96.7173 40.0522L92.6526 35.2735C92.6526 35.2735 99.5585 36.6916 99.7533 36.7565C99.948 36.8214 104.532 43.5775 104.532 43.5775L100.203 39.6627ZM123.277 40.192L119.792 39.8025L115.468 43.7173C115.468 43.7173 120.052 36.9613 120.246 36.8963C120.441 36.8314 127.347 35.4133 127.347 35.4133L123.277 40.192Z" fill="white"/>
</svg>
