<svg width="24" height="25" viewBox="0 0 24 25" fill="none" xmlns="http://www.w3.org/2000/svg">
<path d="M13.6044 17.409C13.359 17.4319 13.1127 17.3766 12.9007 17.2508C12.7458 17.0918 12.6716 16.8711 12.6989 16.6508C12.7046 16.4675 12.7265 16.2849 12.7644 16.1054C12.801 15.8994 12.8483 15.6955 12.9062 15.4945L13.5498 13.2799C13.6162 13.0613 13.66 12.8365 13.6807 12.609C13.6807 12.3636 13.7134 12.1944 13.7134 12.0963C13.7271 11.6588 13.5403 11.239 13.2062 10.9563C12.7951 10.6407 12.2832 10.4856 11.7662 10.5199C11.3956 10.5255 11.0279 10.5861 10.6752 10.6999C10.2898 10.8199 9.88431 10.9635 9.45888 11.1308L9.27344 11.8508C9.39887 11.8072 9.55164 11.7581 9.72616 11.7036C9.89266 11.6542 10.0653 11.6285 10.2389 11.6272C10.4824 11.6008 10.7276 11.6606 10.9316 11.7963C11.0702 11.9616 11.1352 12.1764 11.1116 12.3908C11.111 12.5743 11.0909 12.7571 11.0516 12.9363C11.0134 13.1272 10.9643 13.329 10.9043 13.5417L10.2552 15.7671C10.2029 15.974 10.1611 16.1833 10.1298 16.3944C10.1043 16.5751 10.0915 16.7574 10.0916 16.9399C10.0889 17.3803 10.2903 17.7973 10.637 18.0689C11.0544 18.3894 11.5736 18.5483 12.0988 18.5162C12.4687 18.5238 12.8373 18.4704 13.1898 18.358C13.4988 18.2526 13.9116 18.1017 14.428 17.9053L14.6025 17.218C14.4626 17.2761 14.3186 17.3234 14.1716 17.3598C13.9857 17.4023 13.7948 17.4188 13.6044 17.409Z" fill="white"/>
<path d="M14.2865 6.90921C13.9897 6.63659 13.5985 6.48992 13.1956 6.50013C12.7929 6.49104 12.4021 6.63757 12.1047 6.90921C11.5594 7.37937 11.4985 8.20254 11.9687 8.74784C12.0106 8.79645 12.0561 8.84187 12.1047 8.88377C12.7259 9.43938 13.6653 9.43938 14.2865 8.88377C14.8317 8.40898 14.8889 7.5821 14.4141 7.03685C14.3746 6.99143 14.3319 6.94877 14.2865 6.90921Z" fill="white"/>
<path d="M12 0.5C5.37258 0.5 0 5.87258 0 12.5C0 19.1274 5.37258 24.5 12 24.5C18.6274 24.5 24 19.1274 24 12.5C24 5.87258 18.6274 0.5 12 0.5ZM12 23.4091C5.97506 23.4091 1.09092 18.5249 1.09092 12.5C1.09092 6.47506 5.97506 1.59092 12 1.59092C18.0249 1.59092 22.9091 6.47506 22.9091 12.5C22.9091 18.5249 18.0249 23.4091 12 23.4091Z" fill="white"/>
</svg>
