<svg width="120" height="120" viewBox="0 0 120 120" fill="none" xmlns="http://www.w3.org/2000/svg">
<path d="M111.016 32.6037L96.1598 71.2298H36.0312L23.1968 7.05889H0V16.6844H15.3059L28.14 80.8556H102.771L120 36.0593L111.016 32.6037Z" fill="black"/>
<path d="M44.9189 84.0642C36.9574 84.0642 30.4805 90.5414 30.4805 98.5027C30.4805 106.464 36.9577 112.941 44.9189 112.941C52.8804 112.941 59.3573 106.464 59.3573 98.5027C59.3573 90.5414 52.8802 84.0642 44.9189 84.0642Z" fill="black"/>
<path d="M86.6298 84.0642C78.6684 84.0642 72.1914 90.5414 72.1914 98.5027C72.1914 106.464 78.6686 112.941 86.6298 112.941C94.5913 112.941 101.068 106.464 101.068 98.5027C101.068 90.5414 94.5911 84.0642 86.6298 84.0642Z" fill="black"/>
<path d="M88.149 24.4732C87.0228 21.2679 85.4635 18.4957 83.4709 16.1566C81.4784 13.8176 79.1094 11.985 76.3672 10.6556C73.6236 9.32764 70.663 8.66319 67.4874 8.66319C64.2523 8.66319 61.2786 9.32764 58.5645 10.6556C55.8491 11.985 53.4966 13.8176 51.5042 16.1566C49.5118 18.4957 47.9523 21.2679 46.8261 24.4732C45.6999 27.6785 45.1367 31.1871 45.1367 34.999C45.1367 38.8106 45.6999 42.3192 46.8261 45.5245C47.9523 48.7299 49.5116 51.502 51.5042 53.8411C53.4966 56.1802 55.8493 57.9994 58.5645 59.2988C61.2786 60.5981 64.2523 61.2481 67.4874 61.2481C70.663 61.2481 73.6234 60.5984 76.3672 59.2988C79.1096 57.9994 81.4784 56.1797 83.4709 53.8411C85.4633 51.502 87.0228 48.7299 88.149 45.5245C89.2752 42.3192 89.8384 38.8106 89.8384 34.999C89.8381 31.1871 89.2752 27.6785 88.149 24.4732ZM77.3633 41.3229C76.8434 43.2288 76.107 44.8748 75.1543 46.2609C74.2013 47.647 73.0752 48.7165 71.7758 49.4663C70.4764 50.2174 69.047 50.5924 67.4874 50.5924C65.87 50.5924 64.412 50.2174 63.1126 49.4663C61.8132 48.716 60.687 47.647 59.7341 46.2609C58.7811 44.8748 58.0447 43.2288 57.5251 41.3229C57.0052 39.417 56.7453 37.3092 56.7453 34.9987C56.7453 32.6895 57.0052 30.5672 57.5251 28.6315C58.0449 26.6969 58.7813 25.0364 59.7341 23.6503C60.687 22.2642 61.8132 21.1964 63.1126 20.445C64.412 19.6952 65.87 19.3188 67.4874 19.3188C69.0467 19.3188 70.4762 19.6952 71.7758 20.445C73.0752 21.1964 74.2013 22.2642 75.1543 23.6503C76.1073 25.0364 76.8437 26.6974 77.3633 28.6315C77.8831 30.5669 78.1431 32.6897 78.1431 34.9987C78.1431 37.3095 77.8831 39.4172 77.3633 41.3229Z" fill="black"/>
</svg>
