<svg width="32" height="32" viewBox="0 0 32 32" fill="none" xmlns="http://www.w3.org/2000/svg">
<g clip-path="url(#clip0)">
<path d="M31.7171 10.9497C31.4902 10.6819 31.1571 10.5274 30.8061 10.5274H27.4916L20.9824 1.6614C20.592 1.12927 19.8449 1.01584 19.3135 1.40546C18.7818 1.7959 18.6675 2.5434 19.0576 3.07472L24.5292 10.5275H7.15247L12.6241 3.07472C13.0146 2.54297 12.8996 1.7959 12.3682 1.40546C11.8368 1.0154 11.0894 1.13002 10.6989 1.6614L4.18964 10.5275H1.19401C0.842944 10.5275 0.509817 10.6819 0.282941 10.9498C0.0560655 11.2177 -0.0414349 11.5715 0.0162528 11.9178L3.00133 29.8283C3.09726 30.4038 3.59558 30.8261 4.17902 30.8261H27.8209C28.4048 30.8261 28.9027 30.4042 28.9986 29.8283L31.9837 11.9178C32.0415 11.5719 31.944 11.2176 31.7171 10.9497ZM26.8097 28.438H5.19046L2.60339 12.9156H29.3967L26.8097 28.438Z" fill="#FFA800"/>
<path d="M16.0001 15.7016C15.3406 15.7016 14.8061 16.2361 14.8061 16.8956V24.7365C14.8061 25.396 15.3406 25.9306 16.0001 25.9306C16.6596 25.9306 17.1941 25.3964 17.1941 24.7365V16.8956C17.1941 16.2361 16.6596 15.7016 16.0001 15.7016Z" fill="#FFA800"/>
<path d="M22.1692 15.7016C21.5097 15.7016 20.9752 16.2361 20.9752 16.8956V24.7365C20.9752 25.396 21.5097 25.9306 22.1692 25.9306C22.8288 25.9306 23.3633 25.3964 23.3632 24.7365V16.8956C23.3632 16.2361 22.8287 15.7016 22.1692 15.7016Z" fill="#FFA800"/>
<path d="M9.83094 15.7016C9.17143 15.7016 8.63693 16.2361 8.63693 16.8956V24.7365C8.63693 25.396 9.17143 25.9306 9.83094 25.9306C10.4904 25.9306 11.0249 25.3964 11.0249 24.7365V16.8956C11.0249 16.2361 10.4904 15.7016 9.83094 15.7016Z" fill="#FFA800"/>
</g>
<defs>
<clipPath id="clip0">
<rect width="32" height="32" fill="white"/>
</clipPath>
</defs>
</svg>
