<svg width="100" height="100" viewBox="0 0 100 100" fill="none" xmlns="http://www.w3.org/2000/svg">
<path d="M89.3164 2.77542H93.6153V15.0075H89.3164V2.77542Z" fill="black"/>
<path d="M17.545 10.1735H24.3271V20.4709C24.3271 21.3284 24.6461 22.1491 25.2254 22.7812L36.3181 34.8936C36.3555 34.9771 36.4162 35.0004 36.4997 34.963C37.5559 34.8588 38.5141 34.4073 39.2703 33.6575C40.0288 32.906 40.4886 31.9494 40.6 30.8908L40.61 30.7944L30.5647 19.6607C30.3724 19.4474 30.2664 19.1716 30.2664 18.8846V10.1735H41.0756C40.5211 11.21 40.1401 12.3641 39.9878 13.6117L40.2636 13.5863C45.5534 13.0972 50.3083 10.0677 52.9826 5.48247L53.1222 5.24316C49.4688 4.11688 45.6361 5.17628 43.0453 7.6094H30.2662V6.1703C30.2662 4.53547 28.9341 3.20512 27.2965 3.20512C25.6589 3.20512 24.3269 4.53547 24.3269 6.1703V7.6094H17.5448V0.641022H13.2461V17.1421H17.545V10.1735Z" fill="black"/>
<path d="M6.38281 2.77542H10.6817V15.0075H6.38281V2.77542Z" fill="black"/>
<path d="M42.8592 31.5271C42.3361 34.4192 40.0145 36.8318 37.0547 37.2327V55.3622H62.9476V37.2002C60.1303 36.6596 57.8288 34.5288 57.216 31.6985L57.1788 31.5271H55.1735V32.4979C55.1735 35.3498 52.8532 37.6701 50.0013 37.6701C47.1493 37.6701 44.829 35.3498 44.829 32.4979V31.5271H42.8592Z" fill="black"/>
<path d="M52.8544 32.4979V26.8724L52.5915 26.9286C50.8958 27.291 49.1031 27.291 47.4074 26.9286L47.1445 26.8724V32.4979C47.1445 34.072 48.4253 35.3528 49.9994 35.3528C51.5736 35.3528 52.8544 34.0722 52.8544 32.4979Z" fill="black"/>
<path d="M39.9844 15.9353C40.6122 20.9474 44.9075 24.8842 50.0017 24.8842C55.5596 24.8842 60.0812 20.3679 60.0812 14.8169C60.0812 13.1682 59.6782 11.5842 58.9416 10.1737H69.7333V18.8846C69.7333 19.1718 69.6273 19.4476 69.435 19.6607L59.4739 30.7013L59.4055 30.7771L59.4201 30.878C59.7222 32.978 61.4057 34.6474 63.5141 34.9374L63.6271 34.953L74.7743 22.7812C75.3536 22.1491 75.6726 21.3284 75.6726 20.4709V10.1735H82.4547V17.1419H86.7538V0.641022H82.4549V7.6094H75.6728V6.1703C75.6728 4.53547 74.3408 3.20512 72.7032 3.20512C71.0656 3.20512 69.7335 4.53547 69.7335 6.1703V7.6094H57.028C56.5442 7.14059 56.0115 6.71367 55.4295 6.34059L55.2359 6.21624C52.1303 11.7814 46.3701 15.5276 39.9844 15.9353Z" fill="black"/>
<path d="M98.7163 96.7949H94.2313C93.5234 96.7949 92.9492 97.369 92.9492 98.0769C92.9492 98.7848 93.5234 99.359 94.2313 99.359H98.7163C99.4242 99.359 99.9984 98.7848 99.9984 98.0769C99.9984 97.369 99.4242 96.7949 98.7163 96.7949Z" fill="black"/>
<path d="M86.968 96.7949H62.9466V57.6795H51.4004L55.8756 96.7949H44.1248L48.5996 57.6795H37.0534V96.7949H1.28205C0.574145 96.7949 0 97.369 0 98.0769C0 98.7848 0.574145 99.359 1.28205 99.359H86.968C87.6759 99.359 88.25 98.7848 88.25 98.0769C88.25 97.369 87.6759 96.7949 86.968 96.7949Z" fill="black"/>
<path d="M9.82893 83.6053C9.12102 83.6053 8.54688 84.1795 8.54688 84.8874C8.54688 85.5953 9.12102 86.1695 9.82893 86.1695H21.127C21.8349 86.1695 22.4091 85.5953 22.4091 84.8874C22.4091 84.1795 21.8349 83.6053 21.127 83.6053H9.82893Z" fill="black"/>
<path d="M3.41877 75.2758H16.8536C17.5615 75.2758 18.1357 74.7017 18.1357 73.9938C18.1357 73.2859 17.5615 72.7117 16.8536 72.7117H3.41877C2.71086 72.7117 2.13672 73.2859 2.13672 73.9938C2.13672 74.7017 2.71086 75.2758 3.41877 75.2758Z" fill="black"/>
<path d="M90.17 83.6053H78.8719C78.164 83.6053 77.5898 84.1795 77.5898 84.8874C77.5898 85.5953 78.164 86.1695 78.8719 86.1695H90.17C90.8779 86.1695 91.452 85.5953 91.452 84.8874C91.452 84.1795 90.8779 83.6053 90.17 83.6053Z" fill="black"/>
<path d="M81.8633 73.9938C81.8633 74.7017 82.4374 75.2758 83.1453 75.2758H96.5802C97.2881 75.2758 97.8622 74.7017 97.8622 73.9938C97.8622 73.2859 97.2881 72.7117 96.5802 72.7117H83.1453C82.4374 72.7117 81.8633 73.2859 81.8633 73.9938Z" fill="black"/>
</svg>
