<svg width="18" height="20" viewBox="0 0 18 20" fill="none" xmlns="http://www.w3.org/2000/svg">
<path fill-rule="evenodd" clip-rule="evenodd" d="M6 3V2.5C6 1.837 6.264 1.201 6.733 0.733002C7.201 0.264002 7.837 0 8.5 0H9.5C10.163 0 10.799 0.264002 11.268 0.733002C11.737 1.201 12 1.837 12 2.5V3H17C17.552 3 18 3.448 18 4C18 4.552 17.552 5 17 5H16V16C16 18.21 14.21 20 12 20C10.168 20 7.833 20 6 20C3.791 20 2 18.21 2 16V5H1C0.448 5 0 4.552 0 4C0 3.448 0.448 3 1 3H6ZM14 5H4V16C4 17.105 4.896 18 6 18H12C13.105 18 14 17.105 14 16V5ZM9 9.586L10.293 8.293C10.684 7.903 11.317 7.903 11.707 8.293C12.098 8.684 12.098 9.317 11.707 9.707L10.415 11L11.707 12.293C12.098 12.684 12.098 13.317 11.707 13.707C11.317 14.098 10.684 14.098 10.293 13.707L9 12.415L7.707 13.707C7.317 14.098 6.684 14.098 6.293 13.707C5.903 13.317 5.903 12.684 6.293 12.293L7.586 11L6.293 9.707C5.903 9.317 5.903 8.684 6.293 8.293C6.684 7.903 7.317 7.903 7.707 8.293L9 9.586ZM10 3V2.5C10 2.368 9.948 2.241 9.854 2.147C9.76 2.053 9.633 2 9.5 2C9.173 2 8.827 2 8.5 2C8.368 2 8.241 2.053 8.147 2.147C8.053 2.241 8 2.368 8 2.5V3H10Z" fill="#979797"/>
</svg>
