<svg width="12" height="12" viewBox="0 0 12 12" fill="none" xmlns="http://www.w3.org/2000/svg">
<path d="M0.0731936 5.82338L4.8231 1.07345C5.3341 0.562447 6.16558 0.562447 6.67658 1.07345C7.18758 1.58445 7.18758 2.41592 6.67658 2.92692L4.85362 4.74989H10.75C11.439 4.74989 12 5.31088 12 5.99988C12 6.68888 11.439 7.24985 10.75 7.24985H4.85362L6.67658 9.07281C7.18758 9.58381 7.18758 10.4153 6.67658 10.9263C6.42109 11.1818 6.08559 11.3098 5.7496 11.3098C5.4136 11.3098 5.07862 11.1823 4.82261 10.9263L0.0726776 6.17636C-0.0243053 6.07886 -0.0243053 5.92087 0.0731936 5.82338Z" fill="black"/>
</svg>
