<svg width="12" height="12" viewBox="0 0 12 12" fill="none" xmlns="http://www.w3.org/2000/svg">
<path d="M11.9268 5.82336L7.1769 1.07344C6.6659 0.562436 5.83442 0.562436 5.32342 1.07344C4.81242 1.58443 4.81242 2.41591 5.32342 2.92691L7.14638 4.74987H1.24997C0.560991 4.74987 0 5.31086 0 5.99987C0 6.68887 0.560991 7.24984 1.24997 7.24984H7.14638L5.32342 9.0728C4.81242 9.5838 4.81242 10.4153 5.32342 10.9263C5.57891 11.1818 5.91441 11.3098 6.2504 11.3098C6.5864 11.3098 6.92138 11.1823 7.17739 10.9263L11.9273 6.17635C12.0243 6.07885 12.0243 5.92086 11.9268 5.82336Z" fill="#FFA800"/>
</svg>
