<svg width="12" height="12" viewBox="0 0 12 12" fill="none" xmlns="http://www.w3.org/2000/svg">
<path d="M6.17639 11.9268L10.9263 7.1769C11.4373 6.6659 11.4373 5.83442 10.9263 5.32342C10.4153 4.81242 9.58384 4.81242 9.07284 5.32342L7.24988 7.14638L7.24988 1.24997C7.24988 0.560991 6.68889 -2.01976e-07 5.99989 -2.32094e-07C5.31088 -2.62211e-07 4.74992 0.560991 4.74992 1.24997L4.74991 7.14638L2.92695 5.32342C2.41595 4.81242 1.58448 4.81242 1.07348 5.32342C0.817987 5.5789 0.689975 5.91441 0.689975 6.2504C0.689974 6.5864 0.817472 6.92138 1.07348 7.17739L5.8234 11.9273C5.9209 12.0243 6.07889 12.0243 6.17639 11.9268Z" fill="#FFA800"/>
</svg>
