<svg width="24" height="24" viewBox="0 0 24 24" fill="none" xmlns="http://www.w3.org/2000/svg">
<path d="M13.6044 16.909C13.359 16.9319 13.1127 16.8766 12.9007 16.7508C12.7458 16.5918 12.6716 16.3711 12.6989 16.1508C12.7046 15.9675 12.7265 15.7849 12.7644 15.6054C12.801 15.3994 12.8483 15.1955 12.9062 14.9945L13.5498 12.7799C13.6162 12.5613 13.66 12.3365 13.6807 12.109C13.6807 11.8636 13.7134 11.6944 13.7134 11.5963C13.7271 11.1588 13.5403 10.739 13.2062 10.4563C12.7951 10.1407 12.2832 9.9856 11.7662 10.0199C11.3956 10.0255 11.0279 10.0861 10.6752 10.1999C10.2898 10.3199 9.88431 10.4635 9.45888 10.6308L9.27344 11.3508C9.39887 11.3072 9.55164 11.2581 9.72616 11.2036C9.89266 11.1542 10.0653 11.1285 10.2389 11.1272C10.4824 11.1008 10.7276 11.1606 10.9316 11.2963C11.0702 11.4616 11.1352 11.6764 11.1116 11.8908C11.111 12.0743 11.0909 12.2571 11.0516 12.4363C11.0134 12.6272 10.9643 12.829 10.9043 13.0417L10.2552 15.2671C10.2029 15.474 10.1611 15.6833 10.1298 15.8944C10.1043 16.0751 10.0915 16.2574 10.0916 16.4399C10.0889 16.8803 10.2903 17.2973 10.637 17.5689C11.0544 17.8894 11.5736 18.0483 12.0988 18.0162C12.4687 18.0238 12.8373 17.9704 13.1898 17.858C13.4988 17.7526 13.9116 17.6017 14.428 17.4053L14.6025 16.718C14.4626 16.7761 14.3186 16.8234 14.1716 16.8598C13.9857 16.9023 13.7948 16.9188 13.6044 16.909Z" fill="white"/>
<path d="M14.2846 6.40922C13.9877 6.1366 13.5966 5.98992 13.1936 6.00014C12.7909 5.99105 12.4002 6.13758 12.1027 6.40922C11.5575 6.87938 11.4966 7.70255 11.9668 8.24785C12.0087 8.29645 12.0541 8.34188 12.1027 8.38378C12.7239 8.93939 13.6634 8.93939 14.2845 8.38378C14.8298 7.90899 14.8869 7.08211 14.4121 6.53686C14.3726 6.49144 14.33 6.44878 14.2846 6.40922Z" fill="white"/>
<path d="M12 0C5.37258 0 0 5.37258 0 12C0 18.6274 5.37258 24 12 24C18.6274 24 24 18.6274 24 12C24 5.37258 18.6274 0 12 0ZM12 22.9091C5.97506 22.9091 1.09092 18.0249 1.09092 12C1.09092 5.97506 5.97506 1.09092 12 1.09092C18.0249 1.09092 22.9091 5.97506 22.9091 12C22.9091 18.0249 18.0249 22.9091 12 22.9091Z" fill="white"/>
</svg>
