<svg width="24" height="24" viewBox="0 0 24 24" fill="none" xmlns="http://www.w3.org/2000/svg">
<path d="M12 0.000244141C5.38323 0.000244141 0 5.38347 0 12.0002C0 18.6165 5.38323 24.0002 12 24.0002C18.6163 24.0002 24 18.6165 24 12.0002C24 5.38347 18.6173 0.000244141 12 0.000244141ZM14.9843 12.4227H13.032V19.3812H10.139C10.139 19.3812 10.139 15.5791 10.139 12.4227H8.76388V9.96335H10.139V8.37259C10.139 7.2333 10.6804 5.45308 13.0586 5.45308L15.2023 5.46129V7.84863C15.2023 7.84863 13.8996 7.84863 13.6463 7.84863C13.3931 7.84863 13.0329 7.97527 13.0329 8.51857V9.96383H15.2371L14.9843 12.4227Z" fill="white"/>
</svg>
