<svg width="240" height="132" viewBox="0 0 240 132" fill="none" xmlns="http://www.w3.org/2000/svg">
<path d="M15.4433 94.1963V111.464H11.2379L4.20537 100.815V111.464H0V94.1963H4.20537L11.2379 104.895V94.1963H15.4433Z" fill="white"/>
<path d="M29.2525 108.413H22.8083L21.7733 111.464H17.3718L23.62 94.1958H28.4899L34.738 111.464H30.2875L29.2525 108.413ZM26.0277 98.8424L23.9141 105.161H28.1685L26.0277 98.8424Z" fill="white"/>
<path d="M35.7021 94.1958H49.0591V97.5677H44.4833V111.464H40.2779V97.5677H35.7021V94.1958Z" fill="white"/>
<path d="M51.1016 94.1958H55.3069V104.529C55.3069 106.572 56.3147 107.749 58.3084 107.749C60.3022 107.749 61.3589 106.567 61.3589 104.529V94.1958H65.5643V104.502C65.5643 109.274 62.2196 111.633 58.2376 111.633C54.2284 111.633 51.107 109.274 51.107 104.502V94.1958H51.1016Z" fill="white"/>
<path d="M75.5822 94.1958C79.8148 94.1958 81.9283 96.6308 81.9283 99.6323C81.9283 101.795 80.7463 103.838 78.0934 104.628L82.0754 111.464H77.3308L73.741 104.943H72.7332V111.464H68.5278V94.1958H75.5822ZM75.337 97.6876H72.7332V101.969H75.337C76.9113 101.969 77.6467 101.158 77.6467 99.8066C77.6522 98.5265 76.9113 97.6876 75.337 97.6876Z" fill="white"/>
<path d="M95.3177 108.413H88.8735L87.8385 111.464H83.437L89.6851 94.1958H94.5551L100.803 111.464H96.3527L95.3177 108.413ZM92.0929 98.8424L89.9793 105.161H94.2337L92.0929 98.8424Z" fill="white"/>
<path d="M106.91 94.1958V108.217H112.417V111.464H102.705V94.1958H106.91Z" fill="white"/>
<path d="M135.765 99.654H131.118C130.475 98.4991 129.298 97.8836 127.724 97.8836C125.022 97.8836 123.225 99.801 123.225 102.803C123.225 106 125.044 107.869 128.067 107.869C130.159 107.869 131.608 106.763 132.251 104.818H126.913V101.718H136.064V105.63C135.176 108.604 132.3 111.584 127.751 111.584C122.587 111.584 118.948 107.967 118.948 102.803C118.948 97.6384 122.566 93.9941 127.73 93.9941C131.853 93.9996 134.855 96.1132 135.765 99.654Z" fill="white"/>
<path d="M145.466 94.1958C149.699 94.1958 151.812 96.6308 151.812 99.6323C151.812 101.795 150.63 103.838 147.978 104.628L151.96 111.464H147.215L143.62 104.943H142.612V111.464H138.406V94.1958H145.466ZM145.216 97.6876H142.612V101.969H145.216C146.79 101.969 147.525 101.158 147.525 99.8066C147.531 98.5265 146.79 97.6876 145.216 97.6876Z" fill="white"/>
<path d="M154.449 94.1958H158.655V111.464H154.449V94.1958Z" fill="white"/>
<path d="M177.153 94.1958V111.464H172.948L165.916 100.814V111.464H161.71V94.1958H165.916L172.948 104.894V94.1958H177.153Z" fill="white"/>
<path d="M195.729 102.83C195.729 107.945 192.188 111.464 186.675 111.464H180.209V94.1958H186.675C192.188 94.1958 195.729 97.6876 195.729 102.83ZM186.409 107.825C189.579 107.825 191.447 106.006 191.447 102.83C191.447 99.6595 189.579 97.7856 186.409 97.7856H184.415V107.82H186.409V107.825Z" fill="white"/>
<path d="M208.672 97.5677H202.304V101.059H207.937V104.306H202.304V108.092H208.672V111.464H198.093V94.1958H208.672V97.5677Z" fill="white"/>
<path d="M218.466 94.1958C222.699 94.1958 224.813 96.6308 224.813 99.6323C224.813 101.795 223.631 103.838 220.978 104.628L224.96 111.464H220.215L216.625 104.943H215.617V111.464H211.412V94.1958H218.466ZM218.221 97.6876H215.617V101.969H218.221C219.796 101.969 220.531 101.158 220.531 99.8066C220.536 98.5265 219.796 97.6876 218.221 97.6876Z" fill="white"/>
<path d="M233.697 111.633C229.982 111.633 227.079 109.786 226.959 106.294H231.437C231.557 107.624 232.395 108.261 233.578 108.261C234.809 108.261 235.598 107.645 235.598 106.638C235.598 103.44 226.964 105.161 227.013 99.0386C227.013 95.7647 229.694 93.9453 233.311 93.9453C237.075 93.9453 239.608 95.8138 239.777 99.1094H235.228C235.152 98.0036 234.367 97.339 233.234 97.3118C232.227 97.29 231.464 97.8021 231.464 98.8861C231.464 101.888 240 100.531 240 106.316C239.995 109.225 237.734 111.633 233.697 111.633Z" fill="white"/>
<path d="M80 121.606H86.0847V123.431H82.277V125.403H85.126V127.173H82.277V130.954H80V121.606Z" fill="white"/>
<path d="M92.0662 121.607H94.3432V130.955H92.0662V121.607Z" fill="white"/>
<path d="M100.281 121.607H107.515V123.432H105.036V130.955H102.759V123.432H100.281V121.607Z" fill="white"/>
<path d="M121.803 121.607V130.955H119.526L115.718 125.186V130.955H113.441V121.607H115.718L119.526 127.403V121.607H121.803Z" fill="white"/>
<path d="M133.967 123.432H130.519V125.322H133.569V127.082H130.519V129.13H133.967V130.955H128.242V121.607H133.967V123.432Z" fill="white"/>
<path d="M143.614 131.052C141.604 131.052 140.03 130.055 139.965 128.165H142.389C142.454 128.884 142.906 129.233 143.549 129.233C144.214 129.233 144.638 128.901 144.638 128.356C144.638 126.624 139.965 127.555 139.992 124.243C139.992 122.473 141.441 121.487 143.402 121.487C145.439 121.487 146.812 122.5 146.905 124.281H144.442C144.404 123.682 143.974 123.323 143.364 123.312C142.819 123.295 142.405 123.579 142.405 124.161C142.405 125.785 147.024 125.055 147.024 128.182C147.024 129.745 145.799 131.052 143.614 131.052Z" fill="white"/>
<path d="M156.59 131.052C154.58 131.052 153.006 130.055 152.94 128.165H155.364C155.43 128.884 155.882 129.233 156.525 129.233C157.189 129.233 157.614 128.901 157.614 128.356C157.614 126.624 152.94 127.555 152.967 124.243C152.967 122.473 154.416 121.487 156.377 121.487C158.415 121.487 159.787 122.5 159.88 124.281H157.418C157.38 123.682 156.949 123.323 156.339 123.312C155.795 123.295 155.381 123.579 155.381 124.161C155.381 125.785 160 125.055 160 128.182C159.994 129.745 158.774 131.052 156.59 131.052Z" fill="white"/>
<path d="M86.1284 0V24.9272L98.592 12.4636L86.1284 0Z" fill="white"/>
<path d="M154.013 0.0324707L141.55 12.496L154.013 24.9595V0.0324707Z" fill="white"/>
<path d="M138.543 15.4868L121.934 32.0958L120.006 50.6059L118.061 31.9432L101.452 15.3342L79.9946 36.7914L104.126 57.1101L106.186 74.8957L117.097 80.5773L112.869 75.0101L114.487 73.3922H119.967H119.995H120.022H125.502L127.12 75.0101L122.702 80.8224L133.804 75.0428L135.863 57.2571L159.995 36.9385L138.543 15.4868ZM109.312 43.2683L105.51 43.6932L101.076 38.4801C101.076 38.4801 108.61 40.0271 108.822 40.0979C109.035 40.1688 114.035 47.539 114.035 47.539L109.312 43.2683ZM134.485 43.8457L130.682 43.4208L125.965 47.6916C125.965 47.6916 130.966 40.3213 131.178 40.2505C131.391 40.1797 138.924 38.6326 138.924 38.6326L134.485 43.8457Z" fill="white"/>
</svg>
