<svg width="24" height="24" viewBox="0 0 24 24" fill="none" xmlns="http://www.w3.org/2000/svg">
<path d="M12 14.4025C13.3239 14.4025 14.4033 13.3251 14.4033 12.0002C14.4033 11.4772 14.2322 10.9943 13.9489 10.5999C13.5124 9.99471 12.8029 9.59787 12.0014 9.59787C11.1995 9.59787 10.4904 9.99423 10.053 10.5994C9.76878 10.9938 9.59912 11.4767 9.59863 11.9997C9.59718 13.3246 10.6756 14.4025 12 14.4025Z" fill="#909BA5"/>
<path d="M17.2455 9.06128V7.04758V6.74789L16.9444 6.74886L14.9316 6.75514L14.9394 9.06901L17.2455 9.06128Z" fill="#909BA5"/>
<path d="M12 0C5.38323 0 0 5.38323 0 12C0 18.6163 5.38323 24 12 24C18.6163 24 24 18.6163 24 12C24 5.38323 18.6173 0 12 0ZM18.8246 10.5997V16.1874C18.8246 17.6428 17.6413 18.8256 16.1869 18.8256H7.8131C6.35817 18.8256 5.17538 17.6428 5.17538 16.1874V10.5997V7.81358C5.17538 6.35866 6.35817 5.17586 7.8131 5.17586H16.1864C17.6413 5.17586 18.8246 6.35866 18.8246 7.81358V10.5997Z" fill="#909BA5"/>
<path d="M15.7333 11.9999C15.7333 14.0576 14.0589 15.7329 12.0003 15.7329C9.9416 15.7329 8.26771 14.0576 8.26771 11.9999C8.26771 11.5049 8.36632 11.0317 8.54226 10.5996H6.50488V16.1873C6.50488 16.9094 7.0912 17.4943 7.81287 17.4943H16.1862C16.9069 17.4943 17.4942 16.9094 17.4942 16.1873V10.5996H15.4558C15.6332 11.0317 15.7333 11.5049 15.7333 11.9999V11.9999Z" fill="#909BA5"/>
</svg>
