<svg width="20" height="20" viewBox="0 0 20 20" fill="none" xmlns="http://www.w3.org/2000/svg">
<path d="M17.5082 3.87217C15.9033 2.2357 13.7684 1.33334 11.4985 1.33334C9.22867 1.33334 7.09381 2.23468 5.48891 3.87217C3.88401 5.50966 2.99906 7.6855 2.99906 10V11.3184L0.853197 9.13028C0.658209 8.93146 0.341229 8.93146 0.146241 9.13028C-0.0487469 9.32911 -0.0487469 9.65232 0.146241 9.85115L3.14605 12.91C3.24405 13.0099 3.37204 13.0588 3.50003 13.0588C3.62802 13.0588 3.75601 13.0089 3.85401 12.91L6.85382 9.85115C7.04881 9.65232 7.04881 9.32911 6.85382 9.13028C6.65883 8.93146 6.34185 8.93146 6.14686 9.13028L4.001 11.3184V10C4.001 5.78291 7.36479 2.35295 11.5005 2.35295C15.6363 2.35295 19.0001 5.78291 19.0001 10C19.0001 14.2171 15.6363 17.6471 11.5005 17.6471C11.2245 17.6471 11.0006 17.8755 11.0006 18.1569C11.0006 18.4383 11.2245 18.6667 11.5005 18.6667C13.7704 18.6667 15.9053 17.7653 17.5102 16.1279C19.1151 14.4904 20 12.3145 20 10C20 7.6855 19.1161 5.50864 17.5102 3.87217H17.5082Z" fill="white"/>
</svg>
