<svg width="15" height="20" viewBox="0 0 15 20" fill="none" xmlns="http://www.w3.org/2000/svg">
<path d="M9.15948 10.1992H5.92925C2.75275 10.1992 0.167969 12.7836 0.167969 15.9604V19.769H14.9208V15.9604C14.9208 12.7836 12.336 10.1992 9.15948 10.1992ZM1.28724 18.6497V15.9604C1.28724 13.4007 3.36984 11.3184 5.92925 11.3184H9.15948C11.7189 11.3184 13.8015 13.4007 13.8015 15.9604V18.6497H1.28724Z" fill="white"/>
<path d="M7.54493 0.666656C5.0885 0.666656 3.08984 2.66531 3.08984 5.12174C3.08984 7.57818 5.0885 9.57683 7.54493 9.57683C10.0014 9.57683 12 7.57818 12 5.12174C12 2.66531 10.0014 0.666656 7.54493 0.666656ZM7.54493 8.45756C5.70559 8.45756 4.20912 6.96109 4.20912 5.12174C4.20912 3.2824 5.70559 1.78593 7.54493 1.78593C9.38427 1.78593 10.8807 3.2824 10.8807 5.12174C10.8807 6.96109 9.38427 8.45756 7.54493 8.45756Z" fill="white"/>
</svg>
