<svg width="20" height="21" viewBox="0 0 20 21" fill="none" xmlns="http://www.w3.org/2000/svg">
<path d="M17.3247 17.3005L16.2593 5.57737C16.2292 5.25438 15.9588 5.00774 15.6345 5.00774H13.7566V3.75581C13.7566 2.74925 13.3673 1.80404 12.6599 1.0967C11.9526 0.389352 11.0074 0 10.0008 0C7.93013 0 6.24503 1.68511 6.24503 3.75581V5.00774H4.36712C4.04287 5.00774 3.77246 5.25438 3.74366 5.57737L2.67826 17.3005C2.61441 17.9991 2.84978 18.6977 3.32301 19.216C3.79624 19.7343 4.46978 20.031 5.17212 20.031H14.8308C15.5331 20.031 16.2067 19.7343 16.6799 19.216C17.1531 18.6977 17.3873 17.9991 17.3247 17.3005ZM7.49696 3.75581C7.49696 2.37492 8.61995 1.25194 10.0008 1.25194C10.6731 1.25194 11.3029 1.51109 11.7748 1.98181C12.2468 2.45254 12.5047 3.08352 12.5047 3.75581V5.00774H7.49696V3.75581ZM15.7547 18.3722C15.5144 18.6338 15.1864 18.779 14.8296 18.779H5.17212C4.81657 18.779 4.48731 18.6338 4.24819 18.3709C4.00782 18.108 3.89389 17.7687 3.92644 17.4132L4.93926 6.25968H6.24503V8.13758C6.24503 8.48312 6.52546 8.76355 6.871 8.76355C7.21653 8.76355 7.49696 8.48312 7.49696 8.13758V6.25968H12.5047V8.13758C12.5047 8.48312 12.7851 8.76355 13.1307 8.76355C13.4762 8.76355 13.7566 8.48312 13.7566 8.13758V6.25968H15.0624L16.0765 17.4144C16.109 17.7687 15.9951 18.1093 15.7547 18.3722Z" fill="white"/>
</svg>
