<svg width="31" height="30" viewBox="0 0 31 30" fill="none" xmlns="http://www.w3.org/2000/svg">
<path d="M12.2641 10L10.7585 19.3695H13.1651L14.6698 10H12.2641ZM19.5233 13.8166C18.6823 13.4013 18.1667 13.121 18.1667 12.6962C18.177 12.31 18.6027 11.9144 19.5533 11.9144C20.3351 11.8947 20.9098 12.0785 21.3458 12.2613L21.5642 12.3588L21.8914 10.3984C21.416 10.2147 20.6623 10.0122 19.7314 10.0122C17.3548 10.0122 15.6814 11.2479 15.671 13.0151C15.6513 14.3192 16.8691 15.0429 17.7804 15.477C18.7114 15.9223 19.0283 16.211 19.0283 16.6067C19.018 17.2142 18.2755 17.4945 17.5827 17.4945C16.6227 17.4945 16.107 17.3501 15.3243 17.0116L15.0074 16.8673L14.6708 18.9045C15.2361 19.1558 16.2758 19.377 17.3549 19.3883C19.8806 19.3883 21.524 18.1714 21.5447 16.288C21.5529 15.2548 20.9108 14.4635 19.5233 13.8166ZM28.0611 10.029H26.1992C25.6254 10.029 25.1894 10.194 24.941 10.7828L21.3663 19.3695H23.8919L24.5875 17.5104H27.4132L27.7741 19.377H30.0017L28.0611 10.029ZM25.2879 15.6343C25.3367 15.639 26.2574 12.5996 26.2574 12.5996L26.9905 15.6343C26.9905 15.6343 25.7633 15.6343 25.2879 15.6343ZM8.74757 10L6.38973 16.3657L6.13287 15.1103C5.6969 13.6618 4.33007 12.0878 2.80469 11.306L4.96377 19.3601H7.51009L11.2939 10.001H8.74757V10Z" fill="#2394BC"/>
<path d="M5.33818 11.2087C5.15443 10.4943 4.56844 10.0125 3.77259 10.0022H0.0384559L0 10.1756C2.91288 10.8937 5.35782 13.1033 6.151 15.1818L5.33818 11.2087Z" fill="#EFC75E"/>
</svg>
