<svg width="24" height="24" viewBox="0 0 24 24" fill="none" xmlns="http://www.w3.org/2000/svg">
<path d="M23.8536 11.6468L14.3538 2.1469C13.3318 1.1249 11.6688 1.1249 10.6468 2.1469C9.62484 3.1689 9.62484 4.83186 10.6468 5.85386L14.2928 9.49978H2.49995C1.12198 9.49978 0 10.6218 0 11.9998C0 13.3778 1.12198 14.4997 2.49995 14.4997H14.2928L10.6468 18.1456C9.62484 19.1676 9.62484 20.8306 10.6468 21.8526C11.1578 22.3636 11.8288 22.6196 12.5008 22.6196C13.1728 22.6196 13.8428 22.3646 14.3548 21.8526L23.8546 12.3527C24.0486 12.1577 24.0486 11.8418 23.8536 11.6468Z" fill="#FFA800"/>
</svg>
