<svg width="24" height="24" viewBox="0 0 24 24" fill="none" xmlns="http://www.w3.org/2000/svg">
<path d="M0.146387 11.6468L9.64621 2.1469C10.6682 1.1249 12.3312 1.1249 13.3532 2.1469C14.3752 3.1689 14.3752 4.83186 13.3532 5.85386L9.70724 9.49978H21.5001C22.878 9.49978 24 10.6218 24 11.9998C24 13.3778 22.878 14.4997 21.5001 14.4997H9.70724L13.3532 18.1456C14.3752 19.1676 14.3752 20.8306 13.3532 21.8526C12.8422 22.3636 12.1712 22.6196 11.4992 22.6196C10.8272 22.6196 10.1572 22.3646 9.64522 21.8526L0.145355 12.3527C-0.0486107 12.1577 -0.0486107 11.8418 0.146387 11.6468Z" fill="white"/>
</svg>
