<svg width="55" height="53" viewBox="0 0 55 53" fill="none" xmlns="http://www.w3.org/2000/svg">
<path d="M51.3185 15.87H45.5536V5.14066C45.5536 2.83195 43.6754 0.953674 41.3667 0.953674H4.18698C1.87827 0.953674 0 2.83195 0 5.14066V33.216C0 35.5247 1.87827 37.403 4.18698 37.403H6.65962V43.841C6.65962 44.4958 7.03173 45.0938 7.61922 45.3829C7.85995 45.5015 8.1197 45.5597 8.37815 45.5597C8.75048 45.5597 9.12012 45.4389 9.42648 45.2032L18.0703 38.5529V41.8783C18.0703 43.9082 19.7219 45.5599 21.7519 45.5599H38.9698L46.9373 51.6899C47.2438 51.9256 47.6133 52.0464 47.9857 52.0464C48.2441 52.0464 48.5039 51.9882 48.7446 51.8696C49.3321 51.5804 49.7042 50.9824 49.7042 50.3277V45.5599H51.3185C53.3485 45.5599 55 43.9082 55 41.8783V19.5517C55 17.5216 53.3485 15.87 51.3185 15.87ZM10.097 40.35V35.6841C10.097 34.735 9.32755 33.9654 8.37826 33.9654H4.18698C3.78071 33.9654 3.4375 33.6222 3.4375 33.2159V5.14066C3.4375 4.73439 3.78061 4.39117 4.18698 4.39117H41.3667C41.7729 4.39117 42.1161 4.73439 42.1161 5.14066V33.216C42.1161 33.6223 41.773 33.9655 41.3667 33.9655H18.9802C18.6011 33.9655 18.2326 34.0909 17.932 34.322L10.097 40.35ZM51.5625 41.8782C51.5625 42.0082 51.4484 42.1222 51.3185 42.1222H47.9854C47.0361 42.1222 46.2666 42.8918 46.2666 43.841V46.8367L40.6024 42.4788C40.3019 42.2476 39.9334 42.1222 39.5543 42.1222H21.7517C21.6217 42.1222 21.5077 42.0082 21.5077 41.8782V37.403H41.3667C43.6753 37.403 45.5536 35.5247 45.5536 33.216V19.3075H51.3185C51.4485 19.3075 51.5625 19.4215 51.5625 19.5515V41.8782ZM18.9774 15.8922C18.9737 15.8922 18.9702 15.8922 18.9664 15.8922C18.0172 15.8863 17.2525 15.112 17.2584 14.1628C17.2724 11.9371 18.2543 10.1328 19.9525 9.21259C21.713 8.25868 24.0035 8.38372 25.788 9.53131C27.5035 10.6344 28.4115 12.4372 28.2833 14.4821C28.2148 16.635 26.8034 17.8956 25.6678 18.9099C24.3651 20.0734 23.5675 20.8719 23.583 22.554C23.5917 23.5031 22.8293 24.2797 21.88 24.2884C21.8747 24.2884 21.8693 24.2885 21.864 24.2885C20.922 24.2885 20.1543 23.5295 20.1457 22.5855C20.1152 19.2604 22.001 17.576 23.378 16.3462C24.4107 15.4238 24.8328 14.9859 24.848 14.36C24.8486 14.3346 24.8498 14.309 24.8515 14.2835C24.9206 13.2802 24.3879 12.7178 23.9289 12.4226C23.2059 11.9576 22.2442 11.8805 21.5902 12.2349C21.0028 12.5532 20.7018 13.209 20.6959 14.1842C20.6899 15.1297 19.9216 15.8922 18.9774 15.8922ZM23.6713 28.694C23.6713 29.6432 22.9018 30.4127 21.9525 30.4127H21.7759C20.8266 30.4127 20.0572 29.6432 20.0572 28.694C20.0572 27.7448 20.8266 26.9752 21.7759 26.9752H21.9525C22.9018 26.9752 23.6713 27.7448 23.6713 28.694Z" fill="white"/>
</svg>
