<svg width="41" height="54" viewBox="0 0 41 54" fill="none" xmlns="http://www.w3.org/2000/svg">
<path d="M25.0587 27.0477H16.1756C7.44017 27.0477 0.332031 34.1548 0.332031 42.8912V53.3646H40.9022V42.8912C40.9022 34.1548 33.7941 27.0477 25.0587 27.0477ZM3.41004 50.2866V42.8912C3.41004 35.8518 9.13718 30.1257 16.1756 30.1257H25.0587C32.0971 30.1257 37.8242 35.8518 37.8242 42.8912V50.2866H3.41004Z" fill="white"/>
<path d="M20.6187 0.833313C13.8635 0.833313 8.36719 6.32961 8.36719 13.0848C8.36719 19.84 13.8635 25.3363 20.6187 25.3363C27.3739 25.3363 32.8702 19.84 32.8702 13.0848C32.8702 6.32961 27.3739 0.833313 20.6187 0.833313ZM20.6187 22.2583C15.5605 22.2583 11.4452 18.143 11.4452 13.0848C11.4452 8.02661 15.5605 3.91132 20.6187 3.91132C25.6769 3.91132 29.7922 8.02661 29.7922 13.0848C29.7922 18.143 25.6769 22.2583 20.6187 22.2583Z" fill="white"/>
</svg>
