<svg width="64" height="64" viewBox="0 0 64 64" fill="none" xmlns="http://www.w3.org/2000/svg">
<path d="M49.1 52.1C49.6 56 50.8 59.1 52.7 61.5C66.2 52.4 64 32.3 63.6 27.9C55.7 27.4 49 29.2 43.5 33.3C44.5 33.9 45.4 34.6 46.4 35.4C46.8 35.7 46.8 36.5 46.5 36.9C46.2 37.4 45.4 37.4 45 37.1C43.6 36 42.3 35.2 41.1 34.4C34.9 30.9 29.2 31.5 24.3 36.2C22.8 37.6 21.2 38.1 19.7 38.2C18 39.7 16.1 40.9 13.6 41.7C13.1 41.9 12.4 41.6 12.2 41.1C12 40.6 12.3 39.9 12.8 39.7C15 39 16.8 37.8 18.3 36.4C21.4 33.3 22.3 29.2 23.3 24.8C24.4 20.2 25.4 15.4 29.1 11.7L27.9 10.3C27.5 10 27.6 9.3 28 9C28.4 8.6 29.2 8.7 29.5 9.1L30.9 10.8L34.3 10.1C35.2 9.9 35.9 10.8 35.5 11.6C35.1 12.3 35.2 12.7 35.2 12.7C35.3 12.8 35.9 13 37 12.7C37 11.5 35.4 8.9 37.2 7.1C37.6 6.7 38.3 6.7 38.7 7.1C39.1 7.5 39.1 8.2 38.7 8.6C38 9.5 39.4 11.4 39.1 13.3C39.8 14 40.6 14 41.6 13.5C42.6 12.1 39.9 9.8 41.2 6.7C41.3 6 42 5.8 42.5 6C43 6.2 43.2 6.9 43 7.4C42 9.5 44.6 11.3 43.5 14C44 14.4 44.5 14.2 45.1 13.5C45.4 10.8 43.5 9.6 44.1 7.2C44.2 6.7 44.8 6.3 45.4 6.5C45.9 6.6 46.3 7.2 46.1 7.8C45.9 8.8 46.7 9.9 47 11.4L47.6 10.8C47.8 10.6 47.8 10.4 47.7 10.2L44.6 4.30001C44.2 3.20001 43.6 2.30001 40.7 2.70001C38.5 2.90001 38.5 2.70001 29.7 3.00001C28.7 3.10001 27.8 3.60001 27.2 4.50001C24 10 19.4 14.1 14.9 18.1C7.6 24.8 0.5 30.9 0 42.9C0 43.8 0.2 44.5 0.9 45.2C2.3 46.8 5.4 49.7 7.2 50.1C23.7 53.7 29.7 62.2 47.6 51.4C48.2 51 49 51.4 49.1 52.1ZM10 46.9C9.9 47.4 9.5 47.8 8.9 47.8C8.9 47.8 8.8 47.8 8.7 47.8C7.7 47.6 6.9 47.2 6.1 46.6C5.9 46.5 5.7 46.3 5.5 46.2C3.5 44.5 2.4 41.9 2.9 39.4C3 38.9 3.6 38.4 4.2 38.5C4.8 38.6 5.2 39.1 5.1 39.8C4.8 41.5 5.5 43.3 6.9 44.5C7.1 44.6 7.2 44.8 7.4 44.9C7.9 45.2 8.5 45.5 9.2 45.6C9.8 45.9 10.1 46.4 10 46.9ZM31.8 48C31.3 47.8 30.9 47.1 31.2 46.6C31.4 46.1 32.1 45.7 32.6 46C37.7 47.6 43.3 46.7 49 43.4C49.5 43.1 50.2 43.3 50.5 43.8C52.1 46.7 54 48.8 56.5 50.2C56.9 50.5 57.1 51.2 56.8 51.7C56.5 52.2 55.8 52.4 55.3 52.1C52.8 50.6 50.8 48.5 49.1 45.8C43.1 49 37.2 49.8 31.8 48Z" fill="black"/>
<path d="M47.9997 13.6C46.1997 15.5 46.7997 14.9 46.6997 15C47.1997 15.3 47.7997 15.5 48.0997 15.6C48.6997 15.8 49.2997 15.8 49.4997 15.8C49.4997 15.8 49.4997 15.7 49.4997 15.6C49.3997 14.7 48.9997 13.9 47.9997 13.6Z" fill="black"/>
</svg>
