<svg width="24" height="24" viewBox="0 0 24 24" fill="none" xmlns="http://www.w3.org/2000/svg">
<path d="M12 0.000976562C5.38323 0.000976562 0 5.3842 0 12.001C0 18.6173 5.38323 24.001 12 24.001C18.6163 24.001 24 18.6173 24 12.001C24 5.3842 18.6173 0.000976562 12 0.000976562ZM17.3533 9.2545C17.3586 9.37341 17.3615 9.49328 17.3615 9.61316C17.3615 13.263 14.5841 17.4702 9.50246 17.4702C7.94264 17.4702 6.49061 17.0144 5.26867 16.2304C5.48473 16.256 5.70466 16.2691 5.92749 16.2691C7.22194 16.2691 8.41247 15.8273 9.35793 15.0868C8.14952 15.0645 7.12914 14.266 6.77773 13.1683C6.94594 13.2002 7.11947 13.2181 7.29687 13.2181C7.5487 13.2181 7.79328 13.1852 8.02481 13.1219C6.7613 12.8686 5.80955 11.7525 5.80955 10.4136C5.80955 10.402 5.80955 10.3899 5.81004 10.3788C6.18223 10.5852 6.60807 10.7099 7.0605 10.7239C6.31999 10.2294 5.83227 9.38356 5.83227 8.42553C5.83227 7.91897 5.9681 7.4443 6.20591 7.03634C7.56755 8.70782 9.60348 9.80699 11.8985 9.92299C11.8511 9.72046 11.8274 9.5102 11.8274 9.29317C11.8274 7.76816 13.0639 6.53123 14.5889 6.53123C15.3835 6.53123 16.1004 6.86668 16.605 7.40322C17.2348 7.27947 17.8245 7.05036 18.3596 6.73279C18.1518 7.37808 17.7153 7.91897 17.1435 8.26119C17.7027 8.19448 18.2364 8.04657 18.7299 7.82664C18.3616 8.37961 17.8932 8.86636 17.3533 9.2545Z" fill="#FFA800"/>
</svg>
